HIERARCHY
ROOT Root
{
	OFFSET 0.00000 0.00000 0.00000
	CHANNELS 6 Xposition Yposition Zposition Zrotation Xrotation Yrotation
	JOINT Hip
	{
		OFFSET 0 0 0	
		CHANNELS 3 Zrotation Xrotation Yrotation
		JOINT Tummy
		{
			OFFSET 0 0.04 0	
			CHANNELS 3 Zrotation Xrotation Yrotation
			JOINT ChestBottom
			{
				OFFSET 0 0.194 0	
				CHANNELS 3 Zrotation Xrotation Yrotation
				JOINT ChestTop
				{
					OFFSET 0 0.166 0	
					CHANNELS 3 Zrotation Xrotation Yrotation
					JOINT LeftCollar
					{
						OFFSET 0 0.1 0	
						CHANNELS 3 Zrotation Xrotation Yrotation
						JOINT LeftUpperArm
						{
							OFFSET 0.156 -0.02 0.03	
							CHANNELS 3 Zrotation Xrotation Yrotation
							JOINT LeftForeArm
							{
								OFFSET 0.035 -0.27 -0.01	
								CHANNELS 3 Zrotation Xrotation Yrotation
								JOINT LeftHand
								{
									OFFSET 0.01 -0.27 0.01	
									CHANNELS 3 Zrotation Xrotation Yrotation
									End Site
									{
										OFFSET 0 -0.15 0
									}
								}
							}
						}
					}
					JOINT RightCollar
					{
						OFFSET 0 0.1 0	
						CHANNELS 3 Zrotation Xrotation Yrotation
						JOINT RightUpperArm
						{
							OFFSET -0.156 -0.02 0.03	
							CHANNELS 3 Zrotation Xrotation Yrotation
							JOINT RightForeArm
							{
								OFFSET -0.035 -0.27 -0.01	
								CHANNELS 3 Zrotation Xrotation Yrotation
								JOINT RightHand
								{
									OFFSET -0.01 -0.27 0.01	
									CHANNELS 3 Zrotation Xrotation Yrotation
									End Site
									{
										OFFSET 0 -0.15 0
									}
								}
							}
						}
					}
					JOINT Neck
					{
						OFFSET 0 0.1 0	
						CHANNELS 3 Zrotation Xrotation Yrotation
						JOINT Head
						{
							OFFSET 0 0.127 0.03	
							CHANNELS 3 Zrotation Xrotation Yrotation
							End Site
							{
								OFFSET 0 0.127 0.03
							}
						}
					}
				}
			}
		}
	}
	JOINT LeftHip
	{
		OFFSET 0 0 0	
		CHANNELS 3 Zrotation Xrotation Yrotation
		JOINT LeftThigh
		{
			OFFSET 0.088 -0.06 0	
			CHANNELS 3 Zrotation Xrotation Yrotation
			JOINT LeftLowerLeg
			{
				OFFSET 0 -0.39 0.02	
				CHANNELS 3 Zrotation Xrotation Yrotation
				JOINT LeftFootTop
				{
					OFFSET 0 -0.43 -0.02	
					CHANNELS 3 Zrotation Xrotation Yrotation
					JOINT LeftFootFront
					{
						OFFSET 0 -0.07 0.085	
						CHANNELS 3 Zrotation Xrotation Yrotation
						End Site
						{
							OFFSET 0 -0.005 0.09
						}
					}
				}
				JOINT LeftHeel
				{
					OFFSET 0 -0.43 -0.02	
					CHANNELS 3 Zrotation Xrotation Yrotation
					End Site
					{
						OFFSET 0 -0.075 -0.05
					}
				}
			}
		}
	}
	JOINT RightHip
	{
		OFFSET 0 0 0	
		CHANNELS 3 Zrotation Xrotation Yrotation
		JOINT RightThigh
		{
			OFFSET -0.088 -0.06 0	
			CHANNELS 3 Zrotation Xrotation Yrotation
			JOINT RightLowerLeg
			{
				OFFSET 0 -0.39 0.02	
				CHANNELS 3 Zrotation Xrotation Yrotation
				JOINT RightFootTop
				{
					OFFSET 0 -0.43 -0.02	
					CHANNELS 3 Zrotation Xrotation Yrotation
					JOINT RightFootFront
					{
						OFFSET 0 -0.07 0.085	
						CHANNELS 3 Zrotation Xrotation Yrotation
						End Site
						{
							OFFSET 0 -0.005 0.09
						}
					}
				}
				JOINT RightHeel
				{
					OFFSET 0 -0.43 -0.02	
					CHANNELS 3 Zrotation Xrotation Yrotation
					End Site
					{
						OFFSET 0 -0.075 -0.05
					}
				}
			}
		}
	}
}
MOTION
Frames: 21
Frame Time: 0.05
0 0.95684 0 -0 0 -0 -2.5462 1.2251 -80.937 0.23948 2.6723 -2.1667 0.23949 2.6723 -2.1667 0.19435 2.2454 -1.8191 -0 0 -0 -23.657 -46.465 -40.822 -134.77 -38.766 -107.02 18.288 -24.747 21.468 -0 0 -0 -9.5482 -53.653 17.48 128.4 -51.138 107.07 -40.472 -41.918 -20.561 -0.35125 -9.8622 7.9859 -0.46889 -7.6008 6.166 -2.5462 1.2251 -80.937 3.6201 4.1086 -14.25 -0 0 -0 -0 0 -0 -0 0 -0 -0 0 -0 -2.5462 1.2251 -80.937 1.9454 -2.2885 -8.7536 -0 0 -0 -0 0 -0 -0 0 -0 -0 0 -0 
0 0.95684 0 -0 0 -0 -2.4852 1.248 -80.873 0.089238 2.7016 -2.0751 0.089238 2.7016 -2.0751 0.068371 2.2696 -1.7426 -0 0 -0 -24.067 -46.329 -42.111 -134.54 -38.517 -106.1 20.502 -25.579 20.767 -0 0 -0 -6.8461 -53.749 20.46 126.25 -51.136 106.31 -44.739 -43.673 -22.629 0.47273 -9.4457 6.8465 0.24996 -7.1861 5.0727 -2.4852 1.248 -80.873 3.6531 4.1025 -14.338 -0 0 -0 -0 0 -0 -0 0 -0 -0 0 -0 -2.4852 1.248 -80.873 1.9565 -2.3309 -8.7423 -0 0 -0 -0 0 -0 -0 0 -0 -0 0 -0 
0 0.95684 0 -0 0 -0 -2.4495 1.3658 -80.783 0.13906 2.7351 -2.0984 0.13906 2.7351 -2.0984 0.11006 2.2978 -1.762 -0 0 -0 -23.558 -46.271 -42.487 -134.24 -38.921 -105.75 23.081 -27.853 23.115 -0 0 -0 -4.6885 -53.939 24.8 124.96 -52.009 106.54 -48.42 -45.064 -24.436 0.84622 -9.2861 6.2067 0.66464 -7.0099 4.3989 -2.4495 1.3658 -80.783 3.7863 4.1136 -14.356 -0 0 -0 -0 0 -0 -0 0 -0 -0 0 -0 -2.4495 1.3658 -80.783 2.0631 -2.2428 -8.7618 -0 0 -0 -0 0 -0 -0 0 -0 -0 0 -0 
0 0.95684 0 -0 0 -0 -2.462 1.4661 -80.744 0.32938 2.7477 -2.2041 0.32938 2.7477 -2.2041 0.26953 2.309 -1.8501 -0 0 -0 -23.072 -46.528 -42.124 -133.96 -39.447 -105.5 26.037 -30.014 25.298 -0 0 -0 -3.105 -54.064 28.484 123.68 -52.675 106.27 -50.95 -45.54 -25.087 0.68128 -9.1621 6.8892 0.64995 -6.8704 4.9996 -2.462 1.4661 -80.744 3.8935 4.1686 -14.286 -0 0 -0 -0 0 -0 -0 0 -0 -0 0 -0 -2.462 1.4661 -80.744 2.2571 -2.0786 -8.8313 -0 0 -0 -0 0 -0 -0 0 -0 -0 0 -0 
0 0.95684 0 -0 0 -0 -2.4798 1.4248 -80.782 0.46776 2.712 -2.2948 0.46776 2.712 -2.2948 0.38557 2.2793 -1.9259 -0 0 -0 -22.763 -46.77 -41.503 -133.78 -39.147 -105.28 29.023 -32.325 28.829 -0 0 -0 -2.095 -54.205 30.604 122.92 -53.722 105.91 -50.881 -44.627 -25.395 0.30018 -8.5684 8.1991 0.3954 -6.2943 6.2511 -2.4798 1.4248 -80.782 3.9135 4.2159 -14.197 -0 0 -0 -0 0 -0 -0 0 -0 -0 0 -0 -2.4798 1.4248 -80.782 2.3442 -2.0079 -8.8933 -0 0 -0 -0 0 -0 -0 0 -0 -0 0 -0 
0 0.95684 0 -0 0 -0 -2.4233 1.2759 -80.782 0.41769 2.6986 -2.1685 0.41769 2.6986 -2.1685 0.34395 2.268 -1.82 -0 0 -0 -22.807 -46.553 -41.323 -134.01 -38.436 -105.49 30.82 -34.018 32.278 -0 0 -0 -1.9887 -54.419 32.821 123.81 -56.415 107.16 -50.119 -43.959 -25.763 0.057305 -7.8896 8.7253 0.14998 -5.6194 6.8957 -2.4233 1.2759 -80.782 3.8501 4.229 -14.234 -0 0 -0 -0 0 -0 -0 0 -0 -0 0 -0 -2.4233 1.2759 -80.782 2.3013 -2.0363 -8.886 -0 0 -0 -0 0 -0 -0 0 -0 -0 0 -0 
0 0.95684 0 -0 0 -0 -2.3314 1.182 -80.616 0.26774 2.7654 -1.9872 0.26773 2.7654 -1.9872 0.21842 2.3236 -1.6681 -0 0 -0 -22.82 -46.141 -41.355 -133.95 -37.955 -105.25 31.65 -34.316 35.664 -0 0 -0 -2.3487 -54.757 33.195 123.76 -57.765 107.19 -49.86 -43.89 -26.095 0.046296 -7.5345 8.5771 0.04488 -5.209 6.9016 -2.3314 1.182 -80.616 3.8357 4.2809 -14.455 -0 0 -0 -0 0 -0 -0 0 -0 -0 0 -0 -2.3314 1.182 -80.616 2.3358 -2.1626 -8.8646 -0 0 -0 -0 0 -0 -0 0 -0 -0 0 -0 
0 0.95684 0 -0 0 -0 -2.3851 1.1845 -80.229 0.22621 2.9109 -2.0226 0.22621 2.9109 -2.0227 0.18308 2.4457 -1.698 -0 0 -0 -22.349 -45.993 -40.208 -134.09 -37.463 -104.79 30.959 -32.962 36.871 -0 0 -0 -2.2482 -55.09 32.8 122.67 -57.388 105.95 -48.798 -43.68 -25.271 0.0019173 -7.5198 8.7583 -0.03807 -5.0709 7.0551 -2.3851 1.1845 -80.229 4.0345 4.46 -14.762 -0 0 -0 -0 0 -0 -0 0 -0 -0 0 -0 -2.3851 1.1845 -80.229 2.4691 -2.1704 -8.8031 -0 0 -0 -0 0 -0 -0 0 -0 -0 0 -0 
0 0.95684 0 -0 0 -0 -2.4563 1.2102 -79.688 0.29333 2.9094 -2.1221 0.29333 2.9094 -2.1221 0.23911 2.4447 -1.7813 -0 0 -0 -21.341 -45.805 -36.008 -133.35 -36.013 -102.83 30.034 -31.971 37.885 -0 0 -0 -2.2012 -54.852 32.131 121.94 -56.774 104.53 -44.193 -43.657 -20.437 -0.070437 -7.9579 9.0992 -0.078645 -5.5072 7.3143 -2.4563 1.2102 -79.688 4.3516 4.6121 -14.963 -0 0 -0 -0 0 -0 -0 0 -0 -0 0 -0 -2.4563 1.2102 -79.688 2.6587 -2.1199 -8.729 -0 0 -0 -0 0 -0 -0 0 -0 -0 0 -0 
0 0.95684 0 -0 0 -0 -2.5485 1.1574 -79.03 0.40973 2.9659 -1.9568 0.40973 2.9659 -1.9568 0.33731 2.4923 -1.642 -0 0 -0 -18.929 -44.363 -28.529 -130.89 -35.05 -100.15 27.7 -34.038 41.691 -0 0 -0 -3.7744 -54.508 30.865 122.63 -58.392 103.03 -34.944 -45.131 -11.731 -0.17927 -9.2202 8.8347 -0.10569 -6.719 7.1908 -2.5485 1.1574 -79.03 4.655 4.7462 -15.099 -0 0 -0 -0 0 -0 -0 0 -0 -0 0 -0 -2.5485 1.1574 -79.03 2.877 -2.0578 -8.7903 -0 0 -0 -0 0 -0 -0 0 -0 -0 0 -0 
0 0.95684 0 -0 0 -0 -2.753 0.99032 -78.164 0.33195 3.3242 -1.4353 0.33195 3.3242 -1.4353 0.27318 2.7929 -1.2041 -0 0 -0 -13.028 -40.696 -21.844 -130.54 -34.694 -100.47 25.09 -38.815 46.379 -0 0 -0 -6.5285 -54.88 27.359 122.57 -62.96 98.239 -22.498 -48.794 -3.9527 0.0088302 -11.435 7.9355 0.040486 -8.6399 6.7186 -2.753 0.99032 -78.164 4.9506 4.9728 -15.317 -0 0 -0 -0 0 -0 -0 0 -0 -0 0 -0 -2.753 0.99032 -78.164 3.1328 -1.9079 -9.0382 -0 0 -0 -0 0 -0 -0 0 -0 -0 0 -0 
0 0.95684 0 -0 0 -0 -3.0323 0.76649 -77.042 0.1824 3.7819 -1.1965 0.1824 3.7819 -1.1965 0.14787 3.1771 -1.004 -0 0 -0 -3.8842 -34.047 -16.506 -130.55 -35.617 -101.27 21.585 -47.8 49.847 -0 0 -0 -8.3018 -55.65 23.918 115.53 -66.491 87.092 -13.721 -52.413 -3.3672 0.32066 -13.984 7.817 0.21761 -10.81 6.7783 -3.0323 0.76649 -77.042 5.331 5.1772 -15.696 -0 0 -0 -0 0 -0 -0 0 -0 -0 0 -0 -3.0323 0.76649 -77.042 3.4693 -1.6681 -9.4127 -0 0 -0 -0 0 -0 -0 0 -0 -0 0 -0 
0 0.95684 0 -0 0 -0 -3.1765 0.57745 -75.687 0.24834 4.2884 -1.2828 0.24834 4.2884 -1.2828 0.20208 3.6027 -1.076 -0 0 -0 4.4659 -24.555 -10.31 -126.78 -38.07 -100.23 16.144 -60.912 54.394 -0 0 -0 -9.6016 -56.408 20.873 95.737 -65.16 65.388 -12.681 -49.351 -3.3294 0.28533 -16.677 8.5155 0.16565 -13.077 7.3946 -3.1765 0.57745 -75.687 5.8259 5.1739 -16.182 -0 0 -0 -0 0 -0 -0 0 -0 -0 0 -0 -3.1765 0.57745 -75.687 3.8834 -1.3393 -9.8309 -0 0 -0 -0 0 -0 -0 0 -0 -0 0 -0 
0 0.95684 0 -0 0 -0 -2.8013 0.47947 -74.323 0.24268 4.5961 -1.357 0.24268 4.5961 -1.357 0.19644 3.8611 -1.1382 -0 0 -0 10.22 -14.857 -2.4592 -113.22 -41.981 -93.139 16.45 -80.395 66.883 -0 0 -0 -10.363 -55.544 16.918 74.295 -57.276 43.065 -15.202 -32.465 0.19749 0.42603 -19.287 9.5008 0.22353 -15.431 8.293 -2.8013 0.47947 -74.323 6.3355 4.6887 -16.507 -0 0 -0 -0 0 -0 -0 0 -0 -0 0 -0 -2.8013 0.47947 -74.323 4.1894 -1.3234 -10.056 -0 0 -0 -0 0 -0 -0 0 -0 -0 0 -0 
0 0.95684 0 -0 0 -0 -2.2047 0.34551 -73.116 0.36938 4.6936 -1.5829 0.36938 4.6936 -1.5829 0.30142 3.9433 -1.3271 -0 0 -0 11.273 -7.6685 5.4288 -86.323 -44.503 -77.288 176.44 -72.972 -124.51 -0 0 -0 -11.299 -50.592 13.532 57.581 -46.553 26.833 -12.938 -7.1923 -3.0785 0.8577 -22.072 11.643 0.61287 -18.143 10.188 -2.2047 0.34551 -73.116 6.7702 4.0142 -16.66 -0 0 -0 -0 0 -0 -0 0 -0 -0 0 -0 -2.2047 0.34551 -73.116 4.4157 -1.7504 -10.273 -0 0 -0 -0 0 -0 -0 0 -0 -0 0 -0 
0 0.95684 0 -0 0 -0 -1.7824 -0.22782 -72.049 0.44686 4.8714 -1.5712 0.44686 4.8714 -1.5712 0.36621 4.0928 -1.3167 -0 0 -0 7.5894 -4.6502 6.5181 -50.739 -44.727 -52.943 179.15 -48.228 -116.76 -0 0 -0 -13.727 -41.517 11.052 44.53 -37.777 16.377 -7.0364 13.681 0.58791 1.3412 -24.385 14.172 1.0887 -20.317 12.67 -1.7824 -0.22782 -72.049 6.906 3.3328 -16.912 -0 0 -0 -0 0 -0 -0 0 -0 -0 0 -0 -1.7824 -0.22782 -72.049 4.2774 -2.0225 -10.603 -0 0 -0 -0 0 -0 -0 0 -0 -0 0 -0 
0 0.95684 0 -0 0 -0 -1.4203 -0.97696 -71.124 0.034527 5.4902 -1.2392 0.034527 5.4902 -1.2392 0.020981 4.6118 -1.0402 -0 0 -0 5.2572 -4.7775 1.6393 -16.225 -39.453 -27.679 171.95 -28.535 -115.92 -0 0 -0 -14.511 -30.761 9.6821 33.255 -33.736 6.3849 -2.7871 18.277 21.202 2.1258 -27.008 15.606 1.5584 -22.432 14.3 -1.4203 -0.97696 -71.124 7.0952 1.9434 -17.444 -0 0 -0 -0 0 -0 -0 0 -0 -0 0 -0 -1.4203 -0.97696 -71.124 4.0834 -1.4124 -11.443 -0 0 -0 -0 0 -0 -0 0 -0 -0 0 -0 
0 0.95684 0 -0 0 -0 -1.2673 -1.6047 -70.495 -0.323 6.3146 -1.5754 -0.323 6.3146 -1.5754 -0.28285 5.3037 -1.3248 -0 0 -0 5.2974 -5.1901 7.3802 -2.8469 -24.745 -11.169 172.02 -13.509 -101.3 -0 0 -0 -12.362 -21.336 8.3558 22.65 -26.837 0.32802 -3.3828 16.553 10.632 3.0887 -29.798 17.062 1.9387 -24.561 15.3 -1.2673 -1.6047 -70.495 7.628 -0.22779 -17.756 -0 0 -0 -0 0 -0 -0 0 -0 -0 0 -0 -1.2673 -1.6047 -70.495 3.7431 -0.98529 -12.368 -0 0 -0 -0 0 -0 -0 0 -0 -0 0 -0 
0 0.95684 0 -0 0 -0 -1.6622 -1.938 -70.071 0.31116 7.2771 -1.8496 0.31116 7.2771 -1.8496 0.24526 6.1135 -1.5495 -0 0 -0 5.118 -5.2523 19.159 -1.7518 -14.192 -6.2612 -179.08 -8.9304 -93.443 -0 0 -0 -11.272 -14.856 3.3733 12.982 -14.337 3.5022 4.9648 11.735 -21.666 2.1171 -32.252 17.475 1.318 -26.183 15.508 -1.6622 -1.938 -70.071 8.7683 -2.9633 -17.838 -0 0 -0 -0 0 -0 -0 0 -0 -0 0 -0 -1.6622 -1.938 -70.071 3.991 -0.97364 -13.331 -0 0 -0 -0 0 -0 -0 0 -0 -0 0 -0 
0 0.95684 0 -0 0 -0 -2.1543 -2.19 -69.658 0.78554 8.5704 -1.4553 0.78554 8.5704 -1.4553 0.64424 7.2005 -1.2129 -0 0 -0 6.6271 -4.3737 20.427 -2.9698 -11.312 -2.4127 -150.44 -17.157 -97.735 -0 0 -0 -8.1953 -13.24 -1.0483 4.3967 -4.7068 0.16213 -1.6208 8.4081 -12.332 0.80665 -34.776 16.316 0.61115 -27.584 14.844 -2.1543 -2.19 -69.658 10.034 -6.5567 -18.111 -0 0 -0 -0 0 -0 -0 0 -0 -0 0 -0 -2.1543 -2.19 -69.658 4.2485 -0.65871 -13.984 -0 0 -0 -0 0 -0 -0 0 -0 -0 0 -0 
0 0.95684 0 -0 0 -0 -2.4313 -2.5726 -69.565 1.1758 9.3728 -1.318 1.1758 9.3728 -1.318 0.97152 7.875 -1.0923 -0 0 -0 7.2553 -2.1112 15.473 -3.7029 -12.697 0.7839 -95.787 -36.619 -84.737 -0 0 -0 -6.0406 -13.955 -2.6357 -0.43402 -0.40493 -6.7783 -5.0312 3.4393 6.0182 0.36462 -36.032 16.019 0.57715 -28.156 14.735 -2.4313 -2.5726 -69.565 10.782 -10.374 -18.387 -0 0 -0 -0 0 -0 -0 0 -0 -0 0 -0 -2.4313 -2.5726 -69.565 4.2174 -0.37073 -14.223 -0 0 -0 -0 0 -0 -0 0 -0 -0 0 -0 
